{"glyphs":{":":{"x_min":0,"x_max":602,"ha":602,"o":"m 218 436 l 384 436 l 384 301 l 218 301 z m 218 134 l 384 134 l 384 0 l 218 0 z"},"$":{"x_min":0,"x_max":602,"ha":602,"o":"m 269 522 q 229 519 203 500 q 178 482 178 458 q 178 429 199 411 q 220 394 269 380 z m 334 270 l 334 115 q 378 123 402 142 q 426 161 426 189 q 426 219 403 239 q 380 259 334 270 z m 91 182 l 172 182 q 173 152 198 134 q 223 116 269 114 l 269 294 l 204 318 q 151 337 123 371 q 95 404 95 447 q 95 507 141 545 q 187 582 269 588 l 269 631 l 334 631 l 334 588 q 414 579 452 548 q 490 518 495 458 l 415 458 q 412 486 393 501 q 374 516 334 521 l 334 359 l 390 338 q 455 314 482 282 q 509 250 509 198 q 509 134 462 93 q 416 51 334 43 l 334 0 l 269 0 l 269 42 q 180 44 135 79 q 91 113 91 180 z"},"?":{"x_min":0,"x_max":602,"ha":602,"o":"m 268 254 q 268 271 275 284 q 281 297 298 314 l 339 354 q 364 378 374 399 q 385 420 385 444 q 385 478 363 497 q 340 517 302 517 q 258 517 234 494 q 210 471 210 428 l 210 403 l 125 403 l 125 424 q 125 508 169 550 q 213 592 301 592 q 381 592 428 552 q 476 513 476 448 q 476 411 461 380 q 447 349 413 316 l 365 267 q 358 260 355 255 q 353 250 353 239 l 353 210 l 268 210 z m 250 106 l 371 106 l 371 0 l 250 0 z"},"<":{"x_min":0,"x_max":602,"ha":602,"o":"m 498 24 l 82 303 l 82 332 l 498 611 l 498 507 l 204 318 l 498 129 z"},"'":{"x_min":0,"x_max":602,"ha":602,"o":"m 241 583 l 362 583 l 344 308 l 259 308 z"},"=":{"x_min":0,"x_max":602,"ha":602,"o":"m 109 448 l 494 448 l 494 371 l 109 371 z m 494 259 l 494 182 l 109 182 l 109 259 z"},"a":{"x_min":0,"x_max":602,"ha":602,"o":"m 400 204 q 391 205 377 205 q 357 206 351 206 q 268 206 228 187 q 187 167 187 128 q 187 100 208 82 q 230 64 264 64 q 321 64 359 103 q 397 142 400 204 z m 400 56 q 373 25 338 10 q 304 -6 262 -6 q 192 -6 150 32 q 108 69 108 131 q 108 206 170 240 q 232 275 364 275 q 370 275 382 274 q 394 274 400 274 l 400 277 q 400 329 374 352 q 348 375 290 375 q 258 375 241 367 q 224 358 218 341 l 136 341 q 142 392 182 418 q 222 444 292 444 q 386 444 429 403 q 472 362 472 273 l 472 0 l 400 0 z"},"L":{"x_min":0,"x_max":602,"ha":602,"o":"m 143 583 l 226 583 l 226 82 l 520 82 l 520 5 l 143 5 z"},"3":{"x_min":0,"x_max":602,"ha":602,"o":"m 97 113 q 139 90 178 80 q 218 69 259 69 q 324 69 364 105 q 404 141 404 200 q 404 261 361 289 q 319 318 228 318 q 227 318 216 317 q 206 316 196 316 l 196 379 l 364 551 l 97 551 l 97 627 l 473 627 l 473 541 l 312 380 q 398 376 447 327 q 496 277 496 195 q 496 101 431 46 q 366 -9 253 -9 q 218 -9 179 -1 q 140 7 97 23 z"},";":{"x_min":0,"x_max":602,"ha":602,"o":"m 265 436 l 420 436 l 420 302 l 265 302 z m 278 136 l 457 136 l 250 -140 l 142 -140 z"},"J":{"x_min":0,"x_max":602,"ha":602,"o":"m 213 188 l 213 157 q 213 106 228 86 q 242 67 277 67 q 311 67 327 87 q 343 107 343 149 l 343 583 l 426 583 l 426 176 q 426 81 390 36 q 354 -9 278 -9 q 204 -9 167 32 q 130 73 130 155 l 130 188 z"},"V":{"x_min":0,"x_max":602,"ha":602,"o":"m 82 583 l 171 583 l 303 80 l 434 583 l 518 583 l 361 0 l 242 0 z"},"\"":{"x_min":0,"x_max":602,"ha":602,"o":"m 148 583 l 250 583 l 221 355 l 148 355 z m 365 583 l 467 583 l 438 355 l 365 355 z"},"7":{"x_min":0,"x_max":602,"ha":602,"o":"m 186 81 q 186 178 216 260 q 246 342 309 417 l 355 472 q 385 508 394 523 q 403 539 403 550 l 403 553 l 97 553 l 97 627 l 508 627 l 508 598 q 508 528 433 437 q 424 427 419 421 l 376 369 q 322 304 297 236 q 272 167 272 86 l 272 0 l 186 0 z"},"S":{"x_min":0,"x_max":602,"ha":602,"o":"m 389 441 q 387 476 364 496 q 341 516 302 516 q 263 516 238 495 q 213 473 213 441 q 213 414 234 392 q 256 370 314 342 l 347 326 q 422 289 453 249 q 484 209 484 153 q 484 80 432 36 q 379 -7 291 -7 q 209 -7 165 36 q 121 79 118 161 l 208 161 l 208 158 q 208 115 230 92 q 252 68 292 68 q 337 68 365 92 q 394 117 394 154 q 394 186 375 207 q 355 229 278 266 l 237 286 q 180 313 152 351 q 124 389 124 439 q 124 507 175 549 q 226 591 308 591 q 382 591 427 551 q 473 511 478 441 z"},"}":{"x_min":0,"x_max":602,"ha":602,"o":"m 459 276 q 373 276 368 183 q 367 178 367 175 l 366 146 q 360 62 317 27 q 273 -8 165 -8 q 162 -8 153 -8 q 144 -9 138 -9 l 108 -9 l 108 68 l 167 68 q 234 68 257 87 q 279 106 283 162 l 286 211 q 289 255 303 280 q 318 305 346 314 q 318 323 303 348 q 289 373 286 417 l 283 466 q 279 523 257 542 q 234 560 139 560 l 108 560 l 108 637 l 138 637 q 145 637 157 637 q 170 636 177 636 q 274 636 318 600 q 361 564 366 482 l 367 453 q 367 450 368 444 q 374 352 459 352 l 497 352 l 497 276 z"},"Z":{"x_min":0,"x_max":602,"ha":602,"o":"m 128 71 l 350 503 l 131 503 l 131 578 l 446 578 l 446 509 l 227 81 l 474 81 l 474 5 l 128 5 z"},"x":{"x_min":0,"x_max":602,"ha":602,"o":"m 253 219 l 103 438 l 196 438 l 301 279 l 405 438 l 492 438 l 348 225 l 507 0 l 412 0 l 298 165 l 184 0 l 95 0 z"},")":{"x_min":0,"x_max":602,"ha":602,"o":"m 155 572 l 155 637 l 212 637 q 309 567 351 491 q 394 415 394 313 q 394 212 351 136 q 308 61 212 -9 l 155 -9 l 155 56 q 232 108 268 170 q 304 232 304 313 q 304 394 268 456 q 232 519 155 572 z"},"&":{"x_min":0,"x_max":602,"ha":602,"o":"m 291 423 q 323 450 338 471 q 352 492 352 512 q 352 536 333 551 q 313 566 281 566 q 245 566 223 545 q 202 524 202 489 q 202 468 212 443 q 222 418 244 384 z m 225 270 q 203 250 191 225 q 180 201 180 172 q 180 126 209 97 q 238 68 284 68 q 303 68 321 73 q 338 79 355 91 z m 400 27 q 374 9 342 0 q 311 -9 273 -9 q 191 -9 140 42 q 90 92 90 174 q 90 223 111 261 q 131 300 178 339 q 146 385 131 423 q 116 461 116 494 q 116 560 160 598 q 204 636 281 636 q 353 636 393 606 q 434 576 434 523 q 434 485 413 449 q 392 413 350 378 l 286 326 l 410 155 q 420 180 425 207 q 429 234 429 274 q 429 274 429 277 q 428 284 428 291 l 506 291 q 506 217 495 168 q 484 119 461 85 l 523 0 l 419 0 z"},"_":{"x_min":0,"x_max":602,"ha":602,"o":"m -4 -289 l -4 -213 l 644 -213 l 644 -289 z"},"v":{"x_min":0,"x_max":602,"ha":602,"o":"m 85 436 l 166 436 l 299 62 l 306 62 l 439 436 l 516 436 l 357 0 l 244 0 z"},"O":{"x_min":0,"x_max":602,"ha":602,"o":"m 301 69 q 354 69 386 130 q 419 190 419 294 q 419 398 387 458 q 355 518 301 518 q 247 518 215 458 q 183 398 183 294 q 183 190 215 129 q 248 69 301 69 z m 509 292 q 509 159 450 75 q 391 -9 301 -9 q 211 -9 152 75 q 93 159 93 292 q 93 425 152 509 q 211 593 301 593 q 391 593 450 509 q 509 425 509 292 z"},"(":{"x_min":0,"x_max":602,"ha":602,"o":"m 447 -9 l 390 -9 q 294 61 251 136 q 208 212 208 313 q 208 415 251 491 q 293 567 390 637 l 447 637 l 447 572 q 370 519 334 456 q 299 394 299 313 q 299 232 335 170 q 371 108 447 56 z"},"C":{"x_min":0,"x_max":602,"ha":602,"o":"m 479 448 l 392 448 q 390 479 372 496 q 354 512 323 512 q 273 512 247 456 q 221 400 221 294 q 221 183 247 124 q 273 66 323 66 q 355 66 374 83 q 393 101 394 131 l 481 131 q 473 65 432 28 q 392 -10 329 -10 q 234 -10 182 70 q 131 149 131 298 q 131 432 184 510 q 237 587 327 587 q 391 587 432 550 q 472 513 479 448 z"},"W":{"x_min":0,"x_max":602,"ha":602,"o":"m 92 583 l 178 583 q 179 453 187 342 q 194 231 209 134 l 265 356 l 340 356 l 399 134 q 409 208 416 307 q 422 406 427 583 l 506 583 q 502 387 488 248 q 474 109 447 0 l 360 0 l 301 212 l 244 0 l 155 0 q 127 101 112 240 q 97 379 92 583 z"},"A":{"x_min":0,"x_max":602,"ha":602,"o":"m 299 511 l 233 246 l 365 246 z m 244 587 l 361 587 l 515 0 l 425 0 l 384 169 l 214 169 l 172 0 l 91 0 z"},"f":{"x_min":0,"x_max":602,"ha":602,"o":"m 260 366 l 137 366 l 137 436 l 259 436 q 258 442 258 449 q 258 456 258 469 q 258 556 301 594 q 345 631 446 631 l 462 631 l 462 562 q 387 561 360 540 q 333 519 333 461 q 333 461 333 453 q 334 444 334 436 l 462 436 l 462 366 l 334 366 l 334 0 l 260 0 z"},"Q":{"x_min":0,"x_max":602,"ha":602,"o":"m 337 128 l 220 282 l 325 282 l 382 208 q 388 230 391 252 q 394 274 394 299 q 394 399 364 458 q 334 517 285 517 q 232 517 204 464 q 177 411 177 309 q 177 216 207 163 q 237 110 289 110 q 304 110 315 114 q 326 119 337 128 z m 442 128 l 542 0 l 436 0 l 387 65 q 361 48 337 40 q 313 32 288 32 q 197 32 142 109 q 87 187 87 317 q 87 443 141 518 q 195 593 286 593 q 375 593 430 514 q 486 436 486 308 q 486 255 475 212 q 464 168 442 128 z"},"w":{"x_min":0,"x_max":602,"ha":602,"o":"m 94 436 l 172 436 l 203 172 q 203 170 204 166 q 210 123 210 84 l 259 265 l 346 265 l 396 84 q 398 108 401 134 q 403 160 403 162 l 432 436 l 510 436 l 454 0 l 355 0 l 301 193 l 249 0 l 150 0 z"},"-":{"x_min":0,"x_max":602,"ha":602,"o":"m 103 366 l 499 366 l 499 267 l 103 267 z"},"E":{"x_min":0,"x_max":602,"ha":602,"o":"m 134 578 l 480 578 l 480 506 l 217 506 l 217 344 l 448 344 l 448 268 l 217 268 l 217 82 l 489 82 l 489 5 l 134 5 z"},"s":{"x_min":0,"x_max":602,"ha":602,"o":"m 197 111 q 202 86 226 74 q 249 62 292 62 q 346 62 372 77 q 399 92 399 122 q 399 142 386 153 q 373 164 332 175 l 264 194 q 198 212 167 242 q 136 272 136 318 q 136 381 181 412 q 226 443 317 443 q 388 443 424 412 q 461 380 462 319 l 387 319 q 385 350 366 363 q 348 375 301 375 q 256 375 233 362 q 211 348 211 321 q 211 299 227 287 q 243 274 294 261 l 359 244 q 417 229 447 199 q 477 169 477 127 q 477 64 430 29 q 382 -7 299 -7 q 214 -7 172 21 q 130 49 122 111 z"},">":{"x_min":0,"x_max":602,"ha":602,"o":"m 399 318 l 104 507 l 104 611 l 520 332 l 520 303 l 104 24 l 104 129 z"},"l":{"x_min":0,"x_max":602,"ha":602,"o":"m 375 0 q 280 0 244 40 q 207 80 207 201 l 207 631 l 282 631 l 282 215 q 282 120 307 95 q 332 71 408 71 l 439 71 l 439 0 z"},"8":{"x_min":0,"x_max":602,"ha":602,"o":"m 301 305 q 235 274 208 244 q 180 213 180 171 q 180 123 212 95 q 244 68 301 68 q 358 68 390 95 q 422 123 422 171 q 422 212 394 243 q 367 274 301 305 z m 301 393 q 347 412 371 437 q 396 462 396 490 q 396 523 371 542 q 346 561 301 561 q 257 561 232 542 q 206 523 206 492 q 206 462 230 437 q 255 412 301 393 z m 381 350 q 452 312 482 268 q 512 225 512 162 q 512 81 457 36 q 402 -9 301 -9 q 200 -9 145 38 q 90 84 90 168 q 90 227 121 269 q 151 312 221 350 q 170 382 145 418 q 120 455 120 495 q 120 560 169 598 q 218 636 301 636 q 384 636 433 599 q 482 561 482 499 q 482 456 457 419 q 432 382 381 350 z"},"\\":{"x_min":0,"x_max":602,"ha":602,"o":"m 124 637 l 216 637 l 479 -9 l 388 -9 z"},"e":{"x_min":0,"x_max":602,"ha":602,"o":"m 413 272 q 408 322 380 349 q 352 376 306 376 q 262 376 232 349 q 202 321 192 272 z m 384 95 l 473 95 q 465 47 424 20 q 382 -7 317 -7 q 219 -7 164 53 q 109 112 109 219 q 109 323 164 383 q 218 443 312 443 q 399 443 447 382 q 494 321 494 207 l 494 204 l 192 204 l 192 199 q 192 135 225 99 q 258 63 316 63 q 344 63 361 71 q 378 79 384 95 z"},"b":{"x_min":0,"x_max":602,"ha":602,"o":"m 314 64 q 372 64 403 105 q 435 146 435 220 q 435 290 402 330 q 370 371 314 371 q 255 371 221 330 q 187 289 187 218 q 187 146 221 105 q 255 64 314 64 z m 113 631 l 187 631 l 187 383 q 215 412 250 427 q 285 442 326 442 q 413 442 463 382 q 514 322 514 219 q 514 113 464 53 q 414 -8 328 -8 q 279 -8 245 8 q 211 23 183 58 l 183 0 l 113 0 z"},"%":{"x_min":0,"x_max":602,"ha":602,"o":"m 402 56 q 420 56 430 70 q 440 83 440 108 q 440 133 430 147 q 420 160 402 160 q 383 160 373 147 q 363 133 363 108 q 363 83 373 69 q 383 56 402 56 z m 497 108 q 497 60 471 31 q 445 3 402 3 q 358 3 332 31 q 306 60 306 108 q 306 156 332 184 q 358 213 402 213 q 445 213 471 184 q 497 156 497 108 z m 201 470 q 219 470 229 483 q 239 497 239 522 q 239 547 229 561 q 219 574 201 574 q 182 574 172 561 q 162 547 162 522 q 162 498 172 484 q 183 470 201 470 z m 296 522 q 296 474 270 445 q 245 417 201 417 q 157 417 131 445 q 105 474 105 522 q 105 570 131 598 q 157 627 201 627 q 244 627 270 599 q 296 570 296 522 z m 107 3 l 107 50 l 453 627 l 494 627 l 494 581 l 151 3 z"},"m":{"x_min":0,"x_max":602,"ha":602,"o":"m 98 436 l 168 436 l 168 406 q 185 423 204 432 q 224 441 247 441 q 270 441 289 428 q 308 416 322 391 q 341 416 364 428 q 387 441 414 441 q 460 441 483 404 q 506 366 506 290 l 506 0 l 432 0 l 432 309 q 432 341 423 356 q 414 372 395 372 q 367 372 353 341 q 340 311 340 245 l 340 0 l 266 0 l 266 312 q 266 345 258 358 q 249 372 229 372 q 199 372 186 342 q 172 312 172 245 l 172 0 l 98 0 z"},"#":{"x_min":0,"x_max":602,"ha":602,"o":"m 258 396 l 224 244 l 348 244 l 382 396 z m 144 181 l 101 181 l 116 244 l 158 244 l 192 396 l 119 396 l 133 459 l 206 459 l 245 632 l 311 632 l 272 459 l 397 459 l 435 632 l 502 632 l 463 459 l 503 459 l 490 396 l 449 396 l 415 244 l 487 244 l 473 181 l 400 181 l 359 0 l 293 0 l 334 181 l 210 181 l 169 0 l 103 0 z"},",":{"x_min":0,"x_max":602,"ha":602,"o":"m 318 154 l 463 154 l 463 82 l 233 -150 l 137 -150 z"},"n":{"x_min":0,"x_max":602,"ha":602,"o":"m 109 436 l 183 436 l 183 375 q 214 408 250 425 q 285 441 324 441 q 415 441 453 390 q 492 339 492 210 l 492 0 l 418 0 l 418 215 q 418 307 397 340 q 377 374 327 374 q 288 374 257 357 q 227 341 207 309 q 194 288 188 260 q 183 233 183 173 l 183 160 l 183 0 l 109 0 z"},"h":{"x_min":0,"x_max":602,"ha":602,"o":"m 394 270 q 394 321 376 346 q 357 372 321 372 q 261 372 234 323 q 207 274 207 160 l 207 0 l 133 0 l 133 631 l 207 631 l 207 389 q 232 414 264 427 q 295 441 326 441 q 396 441 433 399 q 469 358 469 278 l 469 0 l 394 0 z"},"z":{"x_min":0,"x_max":602,"ha":602,"o":"m 129 85 l 377 360 l 146 360 l 146 431 l 464 431 l 464 347 l 220 76 l 474 76 l 474 5 l 129 5 z"},"B":{"x_min":0,"x_max":602,"ha":602,"o":"m 186 502 l 186 341 l 286 341 q 358 341 388 359 q 419 377 419 419 q 419 462 388 482 q 357 502 289 502 z m 186 266 l 186 81 l 286 81 q 361 81 395 103 q 429 125 429 174 q 429 221 396 243 q 362 266 294 266 z m 102 578 l 308 578 q 402 578 454 537 q 505 497 505 422 q 505 377 487 348 q 469 319 432 304 q 475 289 497 256 q 519 222 519 173 q 519 123 494 84 q 470 45 426 25 q 403 14 375 10 q 347 5 293 5 l 265 5 l 102 5 z"},"K":{"x_min":0,"x_max":602,"ha":602,"o":"m 99 583 l 182 583 l 182 341 l 418 583 l 530 583 l 251 307 l 550 0 l 433 0 l 182 268 l 182 0 l 99 0 z"},"R":{"x_min":0,"x_max":602,"ha":602,"o":"m 210 504 l 210 319 l 274 319 q 335 319 365 341 q 396 363 396 408 q 396 458 367 481 q 337 504 272 504 z m 127 578 l 283 578 q 385 578 436 537 q 486 496 486 412 q 486 349 455 309 q 425 270 366 257 l 516 0 l 416 0 l 281 243 l 210 243 l 210 0 l 127 0 z"},"T":{"x_min":0,"x_max":602,"ha":602,"o":"m 260 502 l 106 502 l 106 578 l 497 578 l 497 502 l 343 502 l 343 0 l 260 0 z"},"P":{"x_min":0,"x_max":602,"ha":602,"o":"m 203 504 l 203 318 l 297 318 q 365 318 394 339 q 423 361 423 410 q 423 457 393 480 q 364 504 305 504 z m 120 578 l 320 578 q 411 578 462 534 q 513 489 513 411 q 513 333 464 288 q 415 243 330 243 l 203 243 l 203 0 l 120 0 z"},"|":{"x_min":0,"x_max":602,"ha":602,"o":"m 260 741 l 343 741 l 343 -266 l 260 -266 z"},"t":{"x_min":0,"x_max":602,"ha":602,"o":"m 229 168 l 229 363 l 139 363 l 139 433 l 235 433 l 235 543 l 310 564 l 310 433 l 462 433 l 462 363 l 304 363 l 304 167 q 304 112 320 90 q 335 67 372 67 q 390 67 412 74 q 434 81 462 96 l 462 22 q 435 9 407 3 q 380 -3 351 -3 q 316 -3 289 11 q 263 24 247 50 q 237 66 233 86 q 229 106 229 146 z"},"M":{"x_min":0,"x_max":602,"ha":602,"o":"m 96 583 l 231 583 l 302 326 l 373 583 l 508 583 l 508 0 l 425 0 l 425 500 l 334 190 l 266 190 l 175 502 l 175 0 l 96 0 z"},"g":{"x_min":0,"x_max":602,"ha":602,"o":"m 288 371 q 237 371 206 334 q 176 297 176 235 q 176 167 205 130 q 235 93 288 93 q 343 93 375 130 q 407 168 407 232 q 407 296 375 334 q 343 371 288 371 z m 410 382 l 410 436 l 485 436 l 485 44 q 485 -63 439 -107 q 394 -151 286 -151 q 209 -151 166 -122 q 122 -93 119 -40 l 202 -40 q 205 -63 224 -73 q 244 -82 292 -82 q 359 -82 385 -57 q 410 -32 410 42 l 410 82 q 386 52 353 37 q 320 22 278 22 q 197 22 147 80 q 97 138 97 233 q 97 328 147 384 q 196 441 279 441 q 321 441 354 426 q 388 411 410 382 z"},"j":{"x_min":0,"x_max":602,"ha":602,"o":"m 302 631 l 409 631 l 409 532 l 302 532 z m 221 361 l 221 431 l 404 431 l 404 29 q 404 -59 370 -101 q 336 -142 264 -142 l 172 -142 l 172 -71 l 235 -71 q 290 -71 311 -46 q 331 -21 331 51 l 331 361 z"},"i":{"x_min":0,"x_max":602,"ha":602,"o":"m 309 359 l 175 359 l 175 430 l 388 430 l 388 0 l 309 0 z m 280 631 l 390 631 l 390 532 l 280 532 z"},"y":{"x_min":0,"x_max":602,"ha":602,"o":"m 78 436 l 166 436 l 312 180 l 449 436 l 531 436 l 259 -65 q 232 -114 211 -129 q 190 -144 152 -144 l 112 -144 l 112 -72 l 149 -72 q 160 -72 168 -67 q 176 -63 181 -54 l 271 109 z"},"@":{"x_min":0,"x_max":602,"ha":602,"o":"m 222 279 q 196 279 183 253 q 170 228 170 177 q 170 115 184 87 q 198 59 229 59 q 259 59 272 82 q 286 105 286 157 q 286 219 270 249 q 254 279 222 279 z m 287 312 l 287 337 l 357 337 l 357 112 q 357 84 365 72 q 373 59 390 59 q 416 59 425 88 q 435 117 435 217 l 435 315 q 435 429 401 477 q 368 525 289 525 q 230 525 201 500 q 173 476 173 425 l 173 422 l 99 422 l 99 424 q 99 500 151 543 q 202 586 294 586 q 396 586 450 520 q 504 454 504 327 l 504 209 q 504 87 478 41 q 451 -5 388 -5 q 362 -5 343 7 q 324 19 312 42 q 297 19 275 7 q 252 -5 221 -5 q 160 -5 130 39 q 99 83 99 170 q 99 256 128 298 q 157 340 216 340 q 239 340 256 333 q 273 326 287 312 z"},".":{"x_min":0,"x_max":602,"ha":602,"o":"m 209 147 l 393 147 l 393 0 l 209 0 z"},"p":{"x_min":0,"x_max":602,"ha":602,"o":"m 314 66 q 372 66 403 107 q 435 148 435 222 q 435 291 402 332 q 369 373 314 373 q 255 373 221 332 q 186 291 186 220 q 186 149 220 107 q 255 66 314 66 z m 113 436 l 186 436 l 186 383 q 215 413 250 427 q 286 442 326 442 q 413 442 463 382 q 514 322 514 219 q 514 115 464 56 q 414 -4 328 -4 q 281 -4 246 10 q 212 24 186 55 l 186 -142 l 113 -142 z"},"X":{"x_min":0,"x_max":602,"ha":602,"o":"m 248 297 l 86 583 l 186 583 l 299 376 l 414 583 l 506 583 l 350 302 l 515 0 l 416 0 l 298 223 l 180 0 l 85 0 z"},"*":{"x_min":0,"x_max":602,"ha":602,"o":"m 257 505 l 257 530 l 346 530 l 346 505 q 346 497 344 448 q 341 399 339 367 q 375 382 415 396 q 455 410 457 411 l 484 422 l 512 337 l 481 328 l 479 328 q 417 309 361 296 q 395 257 440 199 l 442 196 l 464 168 l 394 117 l 373 146 q 353 174 335 201 q 317 228 301 255 q 273 211 257 186 q 240 162 229 146 l 208 117 l 139 168 l 160 197 q 178 221 198 246 q 218 271 241 296 q 215 302 189 309 q 162 315 121 328 l 91 337 l 118 422 l 146 411 q 147 411 188 396 q 228 381 264 367 q 262 405 260 453 q 257 500 257 505 z"},"Y":{"x_min":0,"x_max":602,"ha":602,"o":"m 260 263 l 86 583 l 185 583 l 302 359 l 417 583 l 508 583 l 343 272 l 343 0 l 260 0 z"},"c":{"x_min":0,"x_max":602,"ha":602,"o":"m 471 316 l 390 316 q 388 344 370 359 q 353 374 321 374 q 269 374 244 338 q 219 302 219 227 q 219 145 243 104 q 267 62 315 62 q 350 62 369 81 q 388 100 391 137 l 475 137 q 472 68 430 31 q 388 -6 313 -6 q 232 -6 187 53 q 141 113 141 218 q 141 327 189 384 q 236 440 328 440 q 393 440 430 407 q 468 375 471 316 z"},"!":{"x_min":0,"x_max":602,"ha":602,"o":"m 254 632 l 348 632 l 340 242 l 262 242 z m 240 103 l 362 103 l 362 0 l 240 0 z"},"/":{"x_min":0,"x_max":602,"ha":602,"o":"m 388 637 l 477 637 l 215 -7 l 125 -7 z"},"[":{"x_min":0,"x_max":602,"ha":602,"o":"m 170 -9 l 170 637 l 474 637 l 474 562 l 253 562 l 253 70 l 474 70 l 474 -9 z"},"6":{"x_min":0,"x_max":602,"ha":602,"o":"m 303 71 q 359 71 390 106 q 422 141 422 202 q 422 259 390 293 q 357 326 301 326 q 246 326 213 292 q 180 257 180 199 q 180 141 213 106 q 247 71 303 71 z m 342 632 l 456 632 q 398 581 346 522 q 293 463 240 387 q 259 395 278 398 q 298 402 318 402 q 401 402 457 345 q 512 289 512 203 q 512 110 454 52 q 396 -7 303 -7 q 206 -7 148 53 q 90 112 90 212 q 90 306 151 408 q 212 510 342 632 z"},"r":{"x_min":0,"x_max":602,"ha":602,"o":"m 155 436 l 229 436 l 229 385 q 253 414 283 428 q 313 442 349 442 q 409 442 442 407 q 475 372 475 308 l 475 305 l 400 305 l 400 311 q 400 341 386 357 q 372 374 346 374 q 293 374 261 326 q 229 278 229 195 l 229 0 l 155 0 z"},"2":{"x_min":0,"x_max":602,"ha":602,"o":"m 238 303 l 309 351 q 360 386 380 413 q 399 441 399 475 q 399 513 369 539 q 339 565 293 565 q 260 565 219 548 q 177 531 122 494 l 122 592 q 159 615 200 626 q 241 637 289 637 q 383 637 438 591 q 492 544 492 465 q 492 414 464 372 q 435 331 370 288 l 312 250 q 250 209 228 176 q 205 143 205 99 l 205 81 l 482 81 l 482 5 l 111 5 q 110 12 110 20 q 110 27 110 42 q 110 140 139 198 q 167 255 238 303 z"},"{":{"x_min":0,"x_max":602,"ha":602,"o":"m 106 352 l 143 352 q 194 352 213 367 q 233 383 233 420 q 233 421 234 432 q 234 443 235 453 l 237 482 q 243 566 286 601 q 329 636 431 636 q 432 636 443 637 q 454 637 464 637 l 495 637 l 495 560 l 464 560 q 369 560 346 542 q 324 523 320 466 l 316 417 q 313 372 299 348 q 285 323 257 314 q 285 305 299 280 q 313 256 316 211 l 320 162 q 324 105 346 87 q 369 68 464 68 l 495 68 l 495 -9 l 464 -9 q 461 -9 449 -8 q 436 -8 425 -8 q 328 -8 285 28 q 242 63 237 146 l 235 175 q 235 177 235 181 q 229 276 143 276 l 106 276 z"},"9":{"x_min":0,"x_max":602,"ha":602,"o":"m 302 563 q 245 563 213 529 q 181 494 181 432 q 181 375 214 342 q 246 308 302 308 q 357 308 390 343 q 423 378 423 436 q 423 493 390 528 q 356 563 302 563 z m 267 0 l 148 0 q 219 70 272 131 q 325 192 363 247 q 345 239 326 235 q 307 231 286 231 q 201 231 146 287 q 91 343 91 431 q 91 524 148 581 q 205 637 300 637 q 399 637 456 579 q 513 521 513 422 q 513 334 455 234 q 396 133 267 0 z"}," ":{"x_min":0,"x_max":602,"ha":602,"o":""},"I":{"x_min":0,"x_max":602,"ha":602,"o":"m 154 82 l 259 82 l 259 504 l 172 504 l 172 578 l 430 578 l 430 504 l 343 504 l 343 82 l 448 82 l 448 5 l 154 5 z"},"H":{"x_min":0,"x_max":602,"ha":602,"o":"m 118 583 l 201 583 l 201 339 l 402 339 l 402 583 l 485 583 l 485 0 l 402 0 l 402 263 l 201 263 l 201 0 l 118 0 z"},"4":{"x_min":0,"x_max":602,"ha":602,"o":"m 340 141 l 99 141 l 99 234 l 286 632 l 376 632 l 181 218 l 340 218 l 340 350 l 424 350 l 424 218 l 506 218 l 506 141 l 424 141 l 424 0 l 340 0 z"},"D":{"x_min":0,"x_max":602,"ha":602,"o":"m 219 503 l 219 82 q 300 84 349 138 q 399 192 399 277 q 399 367 350 428 q 301 490 219 503 z m 136 578 l 200 578 q 323 578 407 492 q 490 407 490 284 q 490 156 413 80 q 336 5 204 5 l 136 5 z"},"^":{"x_min":0,"x_max":602,"ha":602,"o":"m 281 630 l 321 630 l 509 345 l 458 303 l 301 469 l 144 303 l 92 345 z"},"0":{"x_min":0,"x_max":602,"ha":602,"o":"m 301 68 q 342 68 362 73 q 382 78 391 90 q 407 109 414 165 q 422 220 422 313 q 422 401 415 456 q 409 511 395 536 q 387 551 367 558 q 346 564 301 564 q 256 564 235 558 q 215 551 207 536 q 193 510 187 455 q 180 401 180 313 q 180 237 186 184 q 191 131 202 106 q 211 84 230 76 q 249 68 301 68 z m 512 313 q 512 208 498 140 q 484 72 455 35 q 438 13 400 2 q 362 -9 301 -9 q 239 -9 202 2 q 165 13 146 37 q 118 72 104 142 q 90 212 90 313 q 90 415 104 485 q 119 556 146 591 q 165 615 202 626 q 239 637 301 637 q 355 637 392 628 q 428 619 447 601 q 479 571 496 498 q 512 424 512 313 z"},"F":{"x_min":0,"x_max":602,"ha":602,"o":"m 175 578 l 476 578 l 476 505 l 258 505 l 258 343 l 437 343 l 437 267 l 258 267 l 258 0 l 175 0 z"},"`":{"x_min":0,"x_max":602,"ha":602,"o":"m 280 495 l 178 632 l 286 632 l 362 495 z"},"k":{"x_min":0,"x_max":602,"ha":602,"o":"m 129 631 l 204 631 l 204 271 l 210 271 l 382 436 l 491 436 l 277 245 l 510 0 l 403 0 l 210 212 l 204 212 l 204 0 l 129 0 z"},"u":{"x_min":0,"x_max":602,"ha":602,"o":"m 493 0 l 419 0 l 419 61 q 387 27 351 11 q 315 -5 272 -5 q 228 -5 194 12 q 160 29 139 61 q 124 85 117 117 q 110 149 110 226 l 110 436 l 184 436 l 184 222 q 184 129 206 95 q 227 62 279 62 q 315 62 346 79 q 376 96 395 127 q 408 148 413 176 q 419 203 419 263 l 419 276 l 419 436 l 493 436 z"},"]":{"x_min":0,"x_max":602,"ha":602,"o":"m 128 70 l 349 70 l 349 562 l 128 562 l 128 637 l 432 637 l 432 -9 l 128 -9 z"},"U":{"x_min":0,"x_max":602,"ha":602,"o":"m 107 583 l 190 583 l 190 210 q 190 129 216 99 q 242 69 303 69 q 364 69 390 101 q 416 132 416 209 l 416 583 l 496 583 l 496 196 q 496 91 447 41 q 398 -9 296 -9 q 244 -9 203 10 q 163 28 139 62 q 122 87 114 120 q 107 153 107 234 z"},"o":{"x_min":0,"x_max":602,"ha":602,"o":"m 301 62 q 359 62 394 104 q 429 146 429 218 q 429 290 394 332 q 359 374 301 374 q 243 374 208 332 q 173 290 173 218 q 173 146 208 104 q 243 62 301 62 z m 507 218 q 507 116 450 55 q 394 -7 301 -7 q 208 -7 152 55 q 95 116 95 218 q 95 319 152 382 q 209 444 301 444 q 394 444 450 382 q 507 320 507 218 z"},"N":{"x_min":0,"x_max":602,"ha":602,"o":"m 108 583 l 208 583 l 415 148 l 415 583 l 494 583 l 494 0 l 398 0 l 187 439 l 187 0 l 108 0 z"},"+":{"x_min":0,"x_max":602,"ha":602,"o":"m 259 276 l 108 276 l 108 353 l 259 353 l 259 536 l 343 536 l 343 353 l 494 353 l 494 276 l 343 276 l 343 93 l 259 93 z"},"G":{"x_min":0,"x_max":602,"ha":602,"o":"m 287 311 l 496 311 l 496 25 q 441 6 403 -2 q 364 -10 331 -10 q 222 -10 161 70 q 100 150 100 294 q 100 433 163 511 q 225 590 334 590 q 399 590 442 558 q 485 527 496 471 l 409 471 q 396 493 378 505 q 359 517 336 517 q 264 517 227 461 q 190 405 190 295 q 190 182 226 125 q 262 67 332 67 q 349 67 369 72 q 389 76 413 86 l 413 235 l 287 235 z"},"q":{"x_min":0,"x_max":602,"ha":602,"o":"m 288 373 q 233 373 200 332 q 167 291 167 222 q 167 148 199 107 q 230 66 288 66 q 347 66 382 107 q 416 149 416 220 q 416 291 381 332 q 346 373 288 373 z m 416 383 l 416 436 l 489 436 l 489 -142 l 416 -142 l 416 55 q 389 24 355 10 q 321 -4 274 -4 q 187 -4 137 56 q 87 115 87 219 q 87 322 138 382 q 189 442 276 442 q 316 442 351 427 q 386 413 416 383 z"},"d":{"x_min":0,"x_max":602,"ha":602,"o":"m 288 371 q 233 371 200 330 q 167 289 167 220 q 167 146 199 105 q 230 64 288 64 q 347 64 382 105 q 416 147 416 218 q 416 289 381 330 q 347 371 288 371 z m 415 383 l 415 631 l 490 631 l 490 0 l 419 0 l 419 58 q 390 23 356 8 q 322 -8 274 -8 q 188 -8 138 53 q 88 113 88 219 q 88 322 139 382 q 189 442 276 442 q 317 442 352 427 q 387 412 415 383 z"},"1":{"x_min":0,"x_max":602,"ha":602,"o":"m 295 527 l 143 394 l 143 505 l 291 627 l 386 627 l 386 0 l 295 0 z"},"5":{"x_min":0,"x_max":602,"ha":602,"o":"m 147 627 l 461 627 l 461 552 l 225 552 l 218 422 q 226 422 234 423 q 243 423 261 423 q 357 423 419 367 q 480 311 480 221 q 480 115 392 54 q 304 -7 149 -7 l 125 -7 l 125 71 q 131 70 138 70 q 145 70 158 70 q 269 70 329 111 q 390 152 390 226 q 390 283 348 315 q 306 348 232 348 q 213 348 187 346 q 161 344 127 339 z"}}}
